<?xml version="1.0" encoding="UTF-8"?>
<!DOCTYPE svg PUBLIC "-//W3C//DTD SVG 1.1//EN" "http://www.w3.org/Graphics/SVG/1.1/DTD/svg11.dtd">
<svg width="800pt" height="363pt" viewBox="0 0 800 363" version="1.1" xmlns="http://www.w3.org/2000/svg">
<g id="#000000ff">
<path fill="#000000" opacity="1.00" d=" M 462.01 46.29 C 466.69 46.37 471.29 45.24 475.98 45.45 C 497.53 45.64 519.11 44.92 540.64 45.66 C 547.74 45.00 554.88 45.39 562.00 45.30 C 586.67 45.30 611.35 45.29 636.03 45.30 C 638.13 44.96 639.48 46.63 640.79 47.98 C 641.89 46.66 643.01 44.95 645.01 45.30 C 659.77 45.38 674.55 45.08 689.31 45.47 C 690.59 50.68 692.22 55.80 693.87 60.91 C 698.34 56.19 701.87 50.68 705.58 45.36 C 720.03 45.22 734.49 45.33 748.95 45.28 C 751.34 44.74 752.01 47.49 752.75 49.16 C 765.99 87.54 779.26 125.91 792.60 164.25 C 793.50 165.82 792.09 167.03 790.98 167.95 C 775.19 180.79 759.87 194.21 744.05 207.02 C 742.95 207.95 741.38 207.67 740.07 207.80 C 727.69 207.76 715.32 207.75 702.95 207.80 C 701.55 207.71 700.05 207.90 698.77 207.26 C 697.25 203.42 697.14 199.14 695.04 195.51 C 690.47 199.12 687.14 204.03 682.52 207.56 C 670.05 208.18 657.50 207.62 645.00 207.81 C 615.08 207.83 585.16 207.91 555.24 207.93 C 554.83 200.75 553.37 193.65 553.36 186.45 C 459.57 186.11 365.79 186.42 272.00 186.35 C 264.18 186.48 256.34 185.96 248.55 186.73 C 248.05 194.32 246.87 201.86 246.69 209.48 C 243.53 208.59 240.24 208.60 237.00 208.65 C 219.33 208.78 201.66 208.64 183.99 208.77 C 173.38 210.15 162.67 209.25 152.00 209.55 C 148.99 209.36 145.43 210.23 142.97 208.00 C 136.47 201.12 130.81 193.36 123.71 187.07 C 119.22 186.08 114.26 187.64 110.07 185.18 C 106.91 193.10 106.10 201.76 102.67 209.59 C 88.32 209.30 73.93 209.88 59.61 209.31 C 53.10 204.98 47.62 199.31 41.39 194.60 C 30.92 185.36 19.79 176.87 9.39 167.55 C 9.26 164.69 10.49 161.99 11.43 159.36 C 20.10 134.04 28.98 108.78 37.64 83.46 C 41.88 71.32 45.91 59.11 50.41 47.07 C 65.82 47.02 81.23 46.87 96.63 47.15 C 103.38 55.76 109.27 65.03 115.93 73.69 C 118.98 73.31 118.29 69.44 119.33 67.26 C 123.57 67.13 127.80 67.15 132.04 67.10 C 133.88 60.45 135.27 53.67 137.34 47.08 C 152.22 46.94 167.11 47.01 181.98 47.02 C 183.69 46.76 184.83 48.07 186.03 49.04 C 187.46 47.93 189.01 46.77 190.94 47.00 C 204.31 46.98 217.69 47.06 231.06 46.97 C 233.30 46.88 235.53 47.28 237.55 48.28 C 240.04 46.58 243.14 47.01 246.00 46.97 C 259.64 47.10 273.28 46.91 286.93 47.06 C 289.11 53.14 290.31 59.50 292.23 65.65 C 293.03 68.04 296.18 66.84 298.06 67.28 C 298.96 60.55 300.23 53.85 300.14 47.04 C 313.08 46.77 326.06 47.49 338.98 46.50 C 379.99 46.46 421.00 46.32 462.01 46.29 M 142.74 52.49 C 140.98 58.23 139.37 64.01 137.56 69.73 C 133.02 70.50 128.41 69.98 123.86 70.54 C 123.54 77.76 120.41 84.41 119.24 91.49 C 110.54 91.59 101.84 91.63 93.15 91.46 C 94.79 84.33 97.63 77.51 98.84 70.26 C 94.86 70.18 90.89 70.24 86.91 70.17 C 88.21 64.09 90.93 58.45 92.76 52.53 C 80.20 52.42 67.64 52.29 55.08 52.60 C 42.82 89.09 29.94 125.38 17.38 161.77 L 16.23 161.88 C 17.63 163.05 18.88 164.92 20.96 164.53 C 32.64 164.66 44.35 164.79 56.02 164.33 C 56.75 163.89 58.20 163.01 58.92 162.57 C 61.95 151.87 65.50 141.33 68.76 130.70 C 70.55 126.42 70.51 121.10 73.88 117.66 C 77.83 117.65 81.78 117.79 85.74 117.67 C 84.40 123.50 82.41 129.14 80.53 134.80 C 80.07 136.27 80.21 137.82 80.23 139.33 C 88.88 139.59 97.55 139.66 106.20 139.29 C 108.68 132.16 110.28 124.74 113.03 117.70 C 117.22 117.55 121.41 117.96 125.59 118.26 C 121.79 133.63 117.81 148.95 113.48 164.19 C 120.94 165.24 128.50 164.55 136.00 164.97 C 141.65 165.46 147.31 164.85 152.96 164.55 C 154.84 164.85 155.58 162.91 156.18 161.51 C 163.71 125.09 172.37 88.86 179.97 52.46 C 167.56 52.44 155.15 52.39 142.74 52.49 M 356.76 52.63 C 356.61 63.09 357.03 73.60 355.73 83.99 C 355.42 97.05 355.24 110.10 354.33 123.13 C 352.98 130.34 353.68 137.71 353.41 144.99 C 353.68 151.43 352.16 157.79 352.68 164.22 C 367.77 165.08 382.90 164.51 398.00 164.67 C 415.14 164.51 432.29 165.06 449.41 164.26 C 450.16 155.57 449.00 146.94 448.42 138.31 C 430.47 138.26 412.52 138.34 394.57 138.27 C 394.19 131.13 394.98 123.92 394.28 116.82 C 407.41 116.48 420.55 116.92 433.68 116.66 C 433.38 108.30 433.62 99.93 433.34 91.57 C 420.48 91.54 407.62 91.56 394.76 91.56 C 394.50 85.04 394.77 78.51 394.65 71.98 C 395.18 71.83 396.22 71.54 396.74 71.40 C 412.28 71.78 427.85 71.59 443.41 71.60 C 443.95 71.26 445.04 70.57 445.58 70.23 C 445.09 64.27 445.88 58.20 444.47 52.35 C 415.23 52.69 385.98 52.12 356.76 52.63 M 458.40 52.45 C 458.13 57.65 458.72 62.80 459.44 67.93 C 459.37 78.30 460.53 88.62 460.48 98.99 C 461.64 109.80 462.32 120.67 462.61 131.56 C 463.86 141.87 463.36 152.29 463.75 162.66 C 463.97 162.61 464.40 162.51 464.61 162.47 C 467.19 163.88 470.01 164.78 472.98 164.54 C 494.99 164.57 517.01 164.80 539.02 164.52 C 541.96 164.63 544.76 163.64 547.61 163.06 C 546.43 158.73 546.81 154.21 546.01 149.84 C 545.40 146.01 544.83 142.18 544.51 138.32 C 535.01 138.27 525.50 138.30 516.00 138.30 C 511.83 138.27 507.62 138.55 503.49 137.79 C 503.68 131.48 502.34 125.28 502.23 118.98 C 500.61 108.37 499.92 97.68 499.38 86.96 C 498.22 81.56 498.12 76.02 498.33 70.51 C 504.75 72.18 511.44 71.20 518.00 71.46 C 523.82 71.21 529.91 72.32 535.46 70.03 C 534.69 66.67 534.81 63.16 533.86 59.84 C 533.55 57.40 533.39 54.95 533.30 52.50 C 508.33 52.37 483.37 52.46 458.40 52.45 M 175.00 140.81 C 173.53 148.64 171.06 156.33 170.44 164.28 C 175.26 164.89 180.13 164.80 184.99 164.85 C 194.02 164.80 203.09 165.23 212.09 164.25 C 212.63 157.10 214.46 150.14 215.40 143.04 C 216.93 135.93 217.61 128.67 219.21 121.58 C 222.66 98.48 227.43 75.58 230.62 52.45 C 218.31 52.42 205.99 52.46 193.68 52.43 C 187.08 81.81 181.31 111.37 175.00 140.81 M 243.64 52.85 C 243.64 59.40 242.15 65.81 241.08 72.24 C 236.66 102.19 231.55 132.05 227.13 162.00 L 226.30 162.47 C 230.09 163.66 234.09 163.20 238.00 163.27 C 248.05 163.16 258.10 163.44 268.15 163.13 C 268.52 161.05 269.06 159.01 269.38 156.92 C 270.21 143.82 273.05 130.91 273.62 117.78 C 277.97 117.71 282.33 117.86 286.68 117.65 C 287.35 124.99 284.62 132.07 285.37 139.40 C 289.56 139.55 293.75 139.52 297.94 139.47 C 297.97 147.79 295.90 156.00 296.58 164.31 C 309.03 164.84 321.49 164.77 333.95 164.48 C 335.62 164.58 337.33 163.94 338.23 162.46 C 338.56 155.33 337.90 148.11 339.34 141.07 C 339.58 130.38 340.04 119.69 340.77 109.02 C 342.01 102.76 341.10 96.33 341.91 90.02 C 342.74 84.60 342.23 79.09 342.75 73.64 C 343.75 66.62 343.35 59.51 343.54 52.45 C 331.28 52.42 319.02 52.46 306.76 52.43 C 305.53 61.25 305.26 70.17 303.66 78.94 C 303.46 83.15 303.45 87.39 302.52 91.53 C 298.37 91.56 294.21 91.56 290.05 91.56 C 290.18 84.39 292.05 77.40 291.74 70.19 C 287.67 70.23 283.61 70.23 279.55 70.19 C 279.48 64.21 281.21 58.43 281.66 52.50 C 268.99 52.63 256.27 51.94 243.64 52.85 M 546.44 52.49 C 547.25 62.47 549.77 72.20 550.47 82.19 C 552.67 92.98 553.48 103.97 555.31 114.82 C 557.07 123.19 557.27 131.81 559.30 140.14 C 560.21 148.29 560.79 156.57 563.27 164.44 C 585.17 165.29 607.09 164.62 629.00 164.76 C 639.20 164.65 649.43 165.05 659.63 164.30 C 659.56 161.63 658.64 159.12 657.98 156.57 C 652.02 130.79 645.85 105.07 639.94 79.29 C 637.64 70.36 636.10 61.21 633.25 52.42 C 604.32 52.49 575.38 52.36 546.44 52.49 M 647.21 52.49 C 647.92 57.40 649.78 62.04 650.50 66.95 C 657.14 92.69 663.33 118.52 669.73 144.32 C 671.00 150.37 673.23 156.21 673.78 162.40 C 674.11 162.58 674.76 162.94 675.09 163.12 C 683.33 164.19 691.70 163.45 700.00 163.67 C 705.00 163.49 710.09 164.05 715.03 163.00 L 715.89 163.36 C 713.22 152.73 709.71 142.35 706.94 131.75 C 705.77 126.97 703.71 122.42 703.12 117.50 C 707.52 117.63 711.93 117.58 716.34 117.43 C 718.07 124.54 720.44 131.48 722.84 138.38 C 727.33 138.54 731.82 138.50 736.32 138.44 C 738.68 146.46 740.93 154.51 743.47 162.47 C 743.71 162.61 744.19 162.87 744.43 163.00 C 749.55 164.05 754.81 163.50 760.00 163.64 C 768.21 163.50 776.45 163.91 784.64 163.18 C 784.67 162.47 784.72 161.06 784.75 160.36 C 784.48 160.40 783.94 160.48 783.68 160.52 C 783.56 159.68 783.33 157.99 783.22 157.14 C 771.19 122.26 758.93 87.44 746.99 52.53 C 734.54 52.36 722.08 52.42 709.62 52.49 C 713.30 65.60 718.39 78.30 721.91 91.46 C 717.93 91.55 713.94 91.71 709.96 91.47 C 708.42 90.18 708.20 88.09 707.64 86.29 C 706.38 80.90 704.50 75.67 703.18 70.29 C 698.88 70.17 694.57 70.31 690.28 70.05 C 688.11 64.23 686.68 58.17 684.30 52.42 C 671.94 52.49 659.57 52.37 647.21 52.49 M 439.96 124.90 C 439.96 127.36 439.95 129.83 439.93 132.29 C 442.26 132.97 445.50 133.43 446.92 130.89 C 446.90 128.96 446.63 127.02 446.09 125.17 C 444.77 122.55 441.96 124.39 439.96 124.90 M 509.60 124.62 C 509.71 127.35 509.89 130.08 510.21 132.80 C 515.72 133.22 521.29 133.46 526.79 132.88 C 529.84 131.22 527.48 127.05 526.65 124.56 C 521.00 124.19 515.28 124.67 509.60 124.62 Z"/>
<path fill="#000000" opacity="1.00" d=" M 588.05 71.57 C 592.11 71.56 596.16 71.48 600.22 71.35 C 601.26 74.06 602.12 76.85 602.52 79.73 C 605.69 99.27 609.70 118.66 612.83 138.20 C 608.59 137.85 603.71 139.40 599.88 137.42 C 597.11 127.35 596.13 116.88 593.90 106.68 C 592.16 94.94 589.43 83.36 588.05 71.57 Z"/>
</g>
<g id="#dacecbff">
<path fill="#dacecb" opacity="1.00" d=" M 142.74 52.49 C 155.15 52.39 167.56 52.44 179.97 52.46 C 172.37 88.86 163.71 125.09 156.18 161.51 C 155.58 162.91 154.84 164.85 152.96 164.55 C 147.31 164.85 141.65 165.46 136.00 164.97 C 128.50 164.55 120.94 165.24 113.48 164.19 C 117.81 148.95 121.79 133.63 125.59 118.26 C 121.41 117.96 117.22 117.55 113.03 117.70 C 110.28 124.74 108.68 132.16 106.20 139.29 C 97.55 139.66 88.88 139.59 80.23 139.33 C 80.21 137.82 80.07 136.27 80.53 134.80 C 82.41 129.14 84.40 123.50 85.74 117.67 C 81.78 117.79 77.83 117.65 73.88 117.66 C 70.51 121.10 70.55 126.42 68.76 130.70 C 65.50 141.33 61.95 151.87 58.92 162.57 C 52.78 160.65 46.31 161.41 40.00 161.37 C 32.46 161.44 24.90 161.03 17.38 161.77 C 29.94 125.38 42.82 89.09 55.08 52.60 C 67.64 52.29 80.20 52.42 92.76 52.53 C 90.93 58.45 88.21 64.09 86.91 70.17 C 90.89 70.24 94.86 70.18 98.84 70.26 C 97.63 77.51 94.79 84.33 93.15 91.46 C 101.84 91.63 110.54 91.59 119.24 91.49 C 120.41 84.41 123.54 77.76 123.86 70.54 C 128.41 69.98 133.02 70.50 137.56 69.73 C 139.37 64.01 140.98 58.23 142.74 52.49 M 112.90 115.37 C 117.34 117.66 122.59 117.43 127.13 115.56 C 122.47 114.39 117.58 114.12 112.90 115.37 M 72.85 115.50 C 77.44 117.33 82.59 117.25 87.17 115.47 C 82.41 115.06 77.61 115.07 72.85 115.50 M 80.66 137.43 C 89.03 137.98 97.44 137.50 105.82 137.71 C 105.80 137.35 105.76 136.64 105.74 136.29 C 99.13 136.36 92.52 136.32 85.90 136.28 C 84.08 136.20 82.33 136.76 80.66 137.43 M 114.80 162.81 C 120.73 164.42 126.93 163.76 133.00 163.97 C 140.41 163.80 148.04 164.75 155.24 162.51 C 152.97 161.52 150.50 161.17 148.04 161.29 C 138.35 161.51 128.65 161.24 118.95 161.35 C 117.39 161.23 115.99 161.85 114.80 162.81 Z"/>
<path fill="#dacecb" opacity="1.00" d=" M 356.76 52.63 C 385.98 52.12 415.23 52.69 444.47 52.35 C 445.88 58.20 445.09 64.27 445.58 70.23 C 445.04 70.57 443.95 71.26 443.41 71.60 C 443.50 70.48 443.61 69.37 443.72 68.25 C 427.54 68.42 411.36 68.39 395.18 68.27 C 395.70 69.31 396.21 70.35 396.74 71.40 C 396.22 71.54 395.18 71.83 394.65 71.98 C 394.77 78.51 394.50 85.04 394.76 91.56 C 407.62 91.56 420.48 91.54 433.34 91.57 C 433.11 99.00 433.52 106.45 432.76 113.86 C 419.74 115.23 406.64 113.67 393.60 114.68 C 393.83 115.39 394.06 116.10 394.28 116.82 C 394.98 123.92 394.19 131.13 394.57 138.27 C 412.52 138.34 430.47 138.26 448.42 138.31 C 449.00 146.94 450.16 155.57 449.41 164.26 C 432.29 165.06 415.14 164.51 398.00 164.67 C 382.90 164.51 367.77 165.08 352.68 164.22 C 352.16 157.79 353.68 151.43 353.41 144.99 C 353.68 137.71 352.98 130.34 354.33 123.13 C 355.24 110.10 355.42 97.05 355.73 83.99 C 357.03 73.60 356.61 63.09 356.76 52.63 M 353.60 162.43 C 356.05 162.73 358.52 162.92 361.00 162.93 C 387.33 162.95 413.67 162.93 440.00 162.93 C 442.80 162.94 445.59 162.77 448.37 162.44 C 443.36 161.03 438.12 161.70 433.00 161.62 C 408.31 161.59 383.63 161.67 358.95 161.57 C 357.13 161.60 355.35 162.00 353.60 162.43 Z"/>
<path fill="#dacecb" opacity="1.00" d=" M 458.40 52.45 C 483.37 52.46 508.33 52.37 533.30 52.50 C 533.39 54.95 533.55 57.40 533.86 59.84 C 534.14 62.62 534.33 65.40 534.50 68.19 C 522.17 68.79 509.81 67.72 497.51 68.67 C 501.39 70.61 505.83 69.86 510.00 69.98 C 518.49 70.04 526.98 69.77 535.46 70.03 C 529.91 72.32 523.82 71.21 518.00 71.46 C 511.44 71.20 504.75 72.18 498.33 70.51 C 498.12 76.02 498.22 81.56 499.38 86.96 C 499.92 97.68 500.61 108.37 502.23 118.98 C 502.34 125.28 503.68 131.48 503.49 137.79 C 507.62 138.55 511.83 138.27 516.00 138.30 C 525.50 138.30 535.01 138.27 544.51 138.32 C 544.83 142.18 545.40 146.01 546.01 149.84 C 546.41 153.52 546.34 157.23 546.10 160.91 C 536.09 161.84 526.03 161.17 516.00 161.34 C 507.17 161.26 498.31 161.75 489.51 160.76 C 481.18 159.90 472.74 160.48 464.61 162.47 C 464.40 162.51 463.97 162.61 463.75 162.66 C 463.36 152.29 463.86 141.87 462.61 131.56 C 462.32 120.67 461.64 109.80 460.48 98.99 C 460.53 88.62 459.37 78.30 459.44 67.93 C 458.72 62.80 458.13 57.65 458.40 52.45 Z"/>
<path fill="#dacecb" opacity="1.00" d=" M 175.00 140.81 C 181.31 111.37 187.08 81.81 193.68 52.43 C 205.99 52.46 218.31 52.42 230.62 52.45 C 227.43 75.58 222.66 98.48 219.21 121.58 C 217.61 128.67 216.93 135.93 215.40 143.04 C 214.46 150.14 212.63 157.10 212.09 164.25 C 203.09 165.23 194.02 164.80 184.99 164.85 C 180.13 164.80 175.26 164.89 170.44 164.28 C 171.06 156.33 173.53 148.64 175.00 140.81 M 170.82 162.55 C 173.79 163.43 176.87 163.92 179.98 163.94 C 189.85 164.13 199.74 164.21 209.60 163.57 C 210.08 162.84 210.56 162.11 211.04 161.39 C 201.70 161.24 192.35 161.50 183.01 161.34 C 178.93 161.34 174.65 160.79 170.82 162.55 Z"/>
<path fill="#dacecb" opacity="1.00" d=" M 243.64 52.85 C 256.27 51.94 268.99 52.63 281.66 52.50 C 281.21 58.43 279.48 64.21 279.55 70.19 C 283.61 70.23 287.67 70.23 291.74 70.19 C 292.05 77.40 290.18 84.39 290.05 91.56 C 294.21 91.56 298.37 91.56 302.52 91.53 C 303.45 87.39 303.46 83.15 303.66 78.94 C 305.26 70.17 305.53 61.25 306.76 52.43 C 319.02 52.46 331.28 52.42 343.54 52.45 C 343.35 59.51 343.75 66.62 342.75 73.64 C 342.23 79.09 342.74 84.60 341.91 90.02 C 341.10 96.33 342.01 102.76 340.77 109.02 C 340.04 119.69 339.58 130.38 339.34 141.07 C 337.90 148.11 338.56 155.33 338.23 162.46 C 337.33 163.94 335.62 164.58 333.95 164.48 C 321.49 164.77 309.03 164.84 296.58 164.31 C 295.90 156.00 297.97 147.79 297.94 139.47 C 293.75 139.52 289.56 139.55 285.37 139.40 C 284.62 132.07 287.35 124.99 286.68 117.65 C 282.33 117.86 277.97 117.71 273.62 117.78 C 273.05 130.91 270.21 143.82 269.38 156.92 C 269.06 159.01 268.52 161.05 268.15 163.13 C 266.36 161.77 264.51 160.12 262.09 160.32 C 254.40 160.16 246.70 160.57 239.01 160.29 C 235.03 160.35 230.65 159.68 227.13 162.00 C 231.55 132.05 236.66 102.19 241.08 72.24 C 242.15 65.81 243.64 59.40 243.64 52.85 M 273.70 115.82 C 278.42 117.33 283.57 117.36 288.30 115.83 C 287.03 114.98 285.64 114.22 284.06 114.30 C 280.59 114.32 276.66 113.56 273.70 115.82 M 285.68 137.39 C 289.67 137.86 293.70 137.79 297.71 137.68 C 297.72 137.34 297.73 136.64 297.73 136.30 C 293.70 136.30 289.48 135.72 285.68 137.39 M 297.05 162.67 C 310.19 163.06 323.41 163.16 336.55 162.60 C 335.48 161.91 334.37 161.16 333.03 161.32 C 322.33 161.35 311.63 161.46 300.93 161.28 C 299.66 161.45 297.41 160.94 297.05 162.67 Z"/>
<path fill="#dacecb" opacity="1.00" d=" M 546.44 52.49 C 575.38 52.36 604.32 52.49 633.25 52.42 C 636.10 61.21 637.64 70.36 639.94 79.29 C 645.85 105.07 652.02 130.79 657.98 156.57 C 658.64 159.12 659.56 161.63 659.63 164.30 C 649.43 165.05 639.20 164.65 629.00 164.76 C 607.09 164.62 585.17 165.29 563.27 164.44 C 560.79 156.57 560.21 148.29 559.30 140.14 C 557.27 131.81 557.07 123.19 555.31 114.82 C 553.48 103.97 552.67 92.98 550.47 82.19 C 549.77 72.20 547.25 62.47 546.44 52.49 M 586.70 68.58 C 590.37 71.46 595.24 70.49 599.56 70.49 C 599.61 69.97 599.71 68.93 599.76 68.41 C 595.41 68.26 591.04 68.14 586.70 68.58 M 588.05 71.57 C 589.43 83.36 592.16 94.94 593.90 106.68 C 596.13 116.88 597.11 127.35 599.88 137.42 C 603.71 139.40 608.59 137.85 612.83 138.20 C 609.70 118.66 605.69 99.27 602.52 79.73 C 602.12 76.85 601.26 74.06 600.22 71.35 C 596.16 71.48 592.11 71.56 588.05 71.57 M 563.56 162.42 C 577.86 165.07 592.53 163.84 607.00 163.87 C 621.01 163.62 635.03 163.86 649.04 163.72 C 652.45 163.72 655.86 163.27 659.17 162.42 C 654.63 160.70 649.72 161.42 645.00 161.35 C 618.98 161.33 592.96 161.43 566.94 161.31 C 565.68 161.21 564.60 161.83 563.56 162.42 Z"/>
<path fill="#dacecb" opacity="1.00" d=" M 647.21 52.49 C 659.57 52.37 671.94 52.49 684.30 52.42 C 686.68 58.17 688.11 64.23 690.28 70.05 C 694.57 70.31 698.88 70.17 703.18 70.29 C 704.50 75.67 706.38 80.90 707.64 86.29 C 708.20 88.09 708.42 90.18 709.96 91.47 C 713.94 91.71 717.93 91.55 721.91 91.46 C 718.39 78.30 713.30 65.60 709.62 52.49 C 722.08 52.42 734.54 52.36 746.99 52.53 C 758.93 87.44 771.19 122.26 783.22 157.14 C 783.33 157.99 783.56 159.68 783.68 160.52 C 772.83 162.25 761.82 160.89 750.91 161.33 C 748.65 161.46 746.54 162.31 744.43 163.00 C 744.19 162.87 743.71 162.61 743.47 162.47 C 740.93 154.51 738.68 146.46 736.32 138.44 C 731.82 138.50 727.33 138.54 722.84 138.38 C 720.44 131.48 718.07 124.54 716.34 117.43 C 711.93 117.58 707.52 117.63 703.12 117.50 C 703.71 122.42 705.77 126.97 706.94 131.75 C 709.71 142.35 713.22 152.73 715.89 163.36 L 715.03 163.00 C 708.80 159.86 701.66 161.78 695.00 161.38 C 688.38 161.84 681.19 159.74 675.09 163.12 C 674.76 162.94 674.11 162.58 673.78 162.40 C 673.23 156.21 671.00 150.37 669.73 144.32 C 663.33 118.52 657.14 92.69 650.50 66.95 C 649.78 62.04 647.92 57.40 647.21 52.49 M 701.73 115.54 C 706.57 116.06 711.46 116.04 716.30 115.54 C 711.49 114.61 706.53 114.56 701.73 115.54 Z"/>
</g>
<g id="#ffffffff">
<path fill="#ffffff" opacity="1.00" d=" M 533.86 59.84 C 534.81 63.16 534.69 66.67 535.46 70.03 C 526.98 69.77 518.49 70.04 510.00 69.98 C 505.83 69.86 501.39 70.61 497.51 68.67 C 509.81 67.72 522.17 68.79 534.50 68.19 C 534.33 65.40 534.14 62.62 533.86 59.84 Z"/>
<path fill="#ffffff" opacity="1.00" d=" M 395.18 68.27 C 411.36 68.39 427.54 68.42 443.72 68.25 C 443.61 69.37 443.50 70.48 443.41 71.60 C 427.85 71.59 412.28 71.78 396.74 71.40 C 396.21 70.35 395.70 69.31 395.18 68.27 Z"/>
<path fill="#ffffff" opacity="1.00" d=" M 586.70 68.58 C 591.04 68.14 595.41 68.26 599.76 68.41 C 599.71 68.93 599.61 69.97 599.56 70.49 C 595.24 70.49 590.37 71.46 586.70 68.58 Z"/>
<path fill="#ffffff" opacity="1.00" d=" M 433.34 91.57 C 433.62 99.93 433.38 108.30 433.68 116.66 C 420.55 116.92 407.41 116.48 394.28 116.82 C 394.06 116.10 393.83 115.39 393.60 114.68 C 406.64 113.67 419.74 115.23 432.76 113.86 C 433.52 106.45 433.11 99.00 433.34 91.57 Z"/>
<path fill="#ffffff" opacity="1.00" d=" M 112.90 115.37 C 117.58 114.12 122.47 114.39 127.13 115.56 C 122.59 117.43 117.34 117.66 112.90 115.37 Z"/>
<path fill="#ffffff" opacity="1.00" d=" M 273.70 115.82 C 276.66 113.56 280.59 114.32 284.06 114.30 C 285.64 114.22 287.03 114.98 288.30 115.83 C 283.57 117.36 278.42 117.33 273.70 115.82 Z"/>
<path fill="#ffffff" opacity="1.00" d=" M 72.85 115.50 C 77.61 115.07 82.41 115.06 87.17 115.47 C 82.59 117.25 77.44 117.33 72.85 115.50 Z"/>
<path fill="#ffffff" opacity="1.00" d=" M 701.73 115.54 C 706.53 114.56 711.49 114.61 716.30 115.54 C 711.46 116.04 706.57 116.06 701.73 115.54 Z"/>
<path fill="#ffffff" opacity="1.00" d=" M 80.66 137.43 C 82.33 136.76 84.08 136.20 85.90 136.28 C 92.52 136.32 99.13 136.36 105.74 136.29 C 105.76 136.64 105.80 137.35 105.82 137.71 C 97.44 137.50 89.03 137.98 80.66 137.43 Z"/>
<path fill="#ffffff" opacity="1.00" d=" M 285.68 137.39 C 289.48 135.72 293.70 136.30 297.73 136.30 C 297.73 136.64 297.72 137.34 297.71 137.68 C 293.70 137.79 289.67 137.86 285.68 137.39 Z"/>
<path fill="#ffffff" opacity="1.00" d=" M 546.01 149.84 C 546.81 154.21 546.43 158.73 547.61 163.06 C 544.76 163.64 541.96 164.63 539.02 164.52 C 517.01 164.80 494.99 164.57 472.98 164.54 C 470.01 164.78 467.19 163.88 464.61 162.47 C 472.74 160.48 481.18 159.90 489.51 160.76 C 498.31 161.75 507.17 161.26 516.00 161.34 C 526.03 161.17 536.09 161.84 546.10 160.91 C 546.34 157.23 546.41 153.52 546.01 149.84 Z"/>
<path fill="#ffffff" opacity="1.00" d=" M 227.13 162.00 C 230.65 159.68 235.03 160.35 239.01 160.29 C 246.70 160.57 254.40 160.16 262.09 160.32 C 264.51 160.12 266.36 161.77 268.15 163.13 C 258.10 163.44 248.05 163.16 238.00 163.27 C 234.09 163.20 230.09 163.66 226.30 162.47 L 227.13 162.00 Z"/>
<path fill="#ffffff" opacity="1.00" d=" M 783.68 160.52 C 783.94 160.48 784.48 160.40 784.75 160.36 C 784.72 161.06 784.67 162.47 784.64 163.18 C 776.45 163.91 768.21 163.50 760.00 163.64 C 754.81 163.50 749.55 164.05 744.43 163.00 C 746.54 162.31 748.65 161.46 750.91 161.33 C 761.82 160.89 772.83 162.25 783.68 160.52 Z"/>
<path fill="#ffffff" opacity="1.00" d=" M 17.38 161.77 C 24.90 161.03 32.46 161.44 40.00 161.37 C 46.31 161.41 52.78 160.65 58.92 162.57 C 58.20 163.01 56.75 163.89 56.02 164.33 C 44.35 164.79 32.64 164.66 20.96 164.53 C 18.88 164.92 17.63 163.05 16.23 161.88 L 17.38 161.77 Z"/>
<path fill="#ffffff" opacity="1.00" d=" M 114.80 162.81 C 115.99 161.85 117.39 161.23 118.95 161.35 C 128.65 161.24 138.35 161.51 148.04 161.29 C 150.50 161.17 152.97 161.52 155.24 162.51 C 148.04 164.75 140.41 163.80 133.00 163.97 C 126.93 163.76 120.73 164.42 114.80 162.81 Z"/>
<path fill="#ffffff" opacity="1.00" d=" M 170.82 162.55 C 174.65 160.79 178.93 161.34 183.01 161.34 C 192.35 161.50 201.70 161.24 211.04 161.39 C 210.56 162.11 210.08 162.84 209.60 163.57 C 199.74 164.21 189.85 164.13 179.98 163.94 C 176.87 163.92 173.79 163.43 170.82 162.55 Z"/>
<path fill="#ffffff" opacity="1.00" d=" M 297.05 162.67 C 297.41 160.94 299.66 161.45 300.93 161.28 C 311.63 161.46 322.33 161.35 333.03 161.32 C 334.37 161.16 335.48 161.91 336.55 162.60 C 323.41 163.16 310.19 163.06 297.05 162.67 Z"/>
<path fill="#ffffff" opacity="1.00" d=" M 563.56 162.42 C 564.60 161.83 565.68 161.21 566.94 161.31 C 592.96 161.43 618.98 161.33 645.00 161.35 C 649.72 161.42 654.63 160.70 659.17 162.42 C 655.86 163.27 652.45 163.72 649.04 163.72 C 635.03 163.86 621.01 163.62 607.00 163.87 C 592.53 163.84 577.86 165.07 563.56 162.42 Z"/>
<path fill="#ffffff" opacity="1.00" d=" M 675.09 163.12 C 681.19 159.74 688.38 161.84 695.00 161.38 C 701.66 161.78 708.80 159.86 715.03 163.00 C 710.09 164.05 705.00 163.49 700.00 163.67 C 691.70 163.45 683.33 164.19 675.09 163.12 Z"/>
<path fill="#ffffff" opacity="1.00" d=" M 353.60 162.43 C 355.35 162.00 357.13 161.60 358.95 161.57 C 383.63 161.67 408.31 161.59 433.00 161.62 C 438.12 161.70 443.36 161.03 448.37 162.44 C 445.59 162.77 442.80 162.94 440.00 162.93 C 413.67 162.93 387.33 162.95 361.00 162.93 C 358.52 162.92 356.05 162.73 353.60 162.43 Z"/>
<path fill="#ffffff" opacity="1.00" d=" M 268.13 200.48 C 273.32 201.01 278.50 201.43 283.73 201.22 C 283.98 216.36 281.91 231.39 281.48 246.49 C 297.51 246.60 313.53 246.48 329.56 246.55 C 329.56 251.90 329.41 257.25 329.40 262.61 C 326.28 263.03 323.14 263.27 319.99 263.21 C 300.51 263.10 281.03 263.31 261.55 263.10 C 262.63 249.50 264.51 235.98 265.63 222.39 C 266.97 215.15 266.79 207.73 268.13 200.48 Z"/>
<path fill="#ffffff" opacity="1.00" d=" M 343.35 200.38 C 356.72 200.43 370.08 200.37 383.45 200.41 C 383.42 205.57 383.38 210.72 383.43 215.88 C 379.54 216.89 375.06 215.46 371.48 216.98 C 371.30 226.83 371.34 236.68 371.35 246.52 C 375.17 246.54 378.98 246.55 382.80 246.51 C 383.60 251.93 383.35 257.45 382.68 262.87 C 368.96 263.55 355.20 263.04 341.47 263.15 C 341.31 257.63 341.37 252.10 341.56 246.58 C 345.53 246.53 349.51 246.54 353.49 246.51 C 353.23 236.41 355.02 226.42 354.61 216.31 C 350.52 216.31 346.34 216.74 342.38 215.47 C 342.59 210.43 342.35 205.35 343.35 200.38 Z"/>
<path fill="#ffffff" opacity="1.00" d=" M 394.76 200.38 C 399.94 200.40 405.13 200.43 410.31 200.34 C 410.86 211.75 410.56 223.18 410.59 234.60 C 414.88 234.75 419.20 234.65 423.47 235.28 C 423.42 239.02 423.45 242.75 423.52 246.49 C 426.17 246.52 428.82 246.52 431.48 246.48 C 431.51 242.73 431.49 238.98 431.43 235.23 C 435.42 234.67 439.46 234.70 443.49 234.71 C 443.40 223.56 443.24 212.40 443.25 201.24 C 448.71 201.18 454.17 201.08 459.63 201.38 C 459.07 214.11 460.80 226.81 460.14 239.52 C 456.19 239.43 452.23 239.39 448.28 239.68 C 448.41 243.56 448.45 247.45 448.36 251.34 C 444.46 251.74 440.16 250.59 436.51 251.95 C 436.34 255.54 436.50 259.14 436.56 262.73 C 430.88 263.37 425.13 263.38 419.45 262.83 C 418.95 259.10 420.85 254.42 418.16 251.42 C 414.39 251.23 410.62 251.40 406.86 251.45 C 406.53 247.47 406.59 243.48 406.57 239.49 C 403.02 239.44 399.47 239.61 395.93 239.39 C 395.58 239.07 394.88 238.43 394.53 238.10 C 394.50 225.54 394.38 212.95 394.76 200.38 Z"/>
<path fill="#ffffff" opacity="1.00" d=" M 471.69 200.33 C 492.64 200.48 513.59 200.36 534.55 200.39 C 535.33 205.65 535.67 210.98 535.57 216.30 C 519.86 216.41 504.15 216.22 488.44 216.39 C 488.48 218.54 488.51 220.69 488.51 222.85 C 496.71 223.84 505.01 223.09 513.25 223.31 C 513.51 228.68 513.69 234.06 513.52 239.44 C 505.61 239.49 497.69 239.50 489.78 239.42 C 489.75 241.80 489.83 244.19 490.05 246.56 C 506.07 246.50 522.10 246.56 538.13 246.53 C 539.38 251.96 539.86 257.53 539.57 263.10 C 523.72 263.29 507.86 263.13 492.00 263.18 C 485.81 263.11 479.60 263.47 473.45 262.74 C 473.40 256.82 473.50 250.90 473.20 244.99 C 472.04 235.43 472.73 225.77 472.14 216.18 C 471.50 210.92 471.31 205.61 471.69 200.33 Z"/>
</g>
<g id="#ee2c29ff">
<path fill="#ee2c29" opacity="1.00" d=" M 272.00 186.35 C 365.79 186.42 459.57 186.11 553.36 186.45 C 553.37 193.65 554.83 200.75 555.24 207.93 C 556.52 218.32 557.22 228.77 558.55 239.16 C 560.42 247.43 559.40 256.03 561.44 264.29 C 561.67 270.62 563.15 276.83 563.09 283.18 C 511.39 282.98 459.70 283.15 408.00 283.10 C 351.46 282.97 294.91 283.34 238.37 283.01 C 238.55 278.64 240.06 274.43 240.05 270.04 C 240.07 266.29 240.34 262.55 241.16 258.88 C 242.60 247.26 243.40 235.59 245.09 224.00 C 245.00 219.08 246.12 214.31 246.69 209.48 C 246.87 201.86 248.05 194.32 248.55 186.73 C 256.34 185.96 264.18 186.48 272.00 186.35 M 268.13 200.48 C 266.79 207.73 266.97 215.15 265.63 222.39 C 264.51 235.98 262.63 249.50 261.55 263.10 C 281.03 263.31 300.51 263.10 319.99 263.21 C 323.14 263.27 326.28 263.03 329.40 262.61 C 329.41 257.25 329.56 251.90 329.56 246.55 C 313.53 246.48 297.51 246.60 281.48 246.49 C 281.91 231.39 283.98 216.36 283.73 201.22 C 278.50 201.43 273.32 201.01 268.13 200.48 M 343.35 200.38 C 342.35 205.35 342.59 210.43 342.38 215.47 C 346.34 216.74 350.52 216.31 354.61 216.31 C 355.02 226.42 353.23 236.41 353.49 246.51 C 349.51 246.54 345.53 246.53 341.56 246.58 C 341.37 252.10 341.31 257.63 341.47 263.15 C 355.20 263.04 368.96 263.55 382.68 262.87 C 383.35 257.45 383.60 251.93 382.80 246.51 C 378.98 246.55 375.17 246.54 371.35 246.52 C 371.34 236.68 371.30 226.83 371.48 216.98 C 375.06 215.46 379.54 216.89 383.43 215.88 C 383.38 210.72 383.42 205.57 383.45 200.41 C 370.08 200.37 356.72 200.43 343.35 200.38 M 394.76 200.38 C 394.38 212.95 394.50 225.54 394.53 238.10 C 394.88 238.43 395.58 239.07 395.93 239.39 C 399.47 239.61 403.02 239.44 406.57 239.49 C 406.59 243.48 406.53 247.47 406.86 251.45 C 410.62 251.40 414.39 251.23 418.16 251.42 C 420.85 254.42 418.95 259.10 419.45 262.83 C 425.13 263.38 430.88 263.37 436.56 262.73 C 436.50 259.14 436.34 255.54 436.51 251.95 C 440.16 250.59 444.46 251.74 448.36 251.34 C 448.45 247.45 448.41 243.56 448.28 239.68 C 452.23 239.39 456.19 239.43 460.14 239.52 C 460.80 226.81 459.07 214.11 459.63 201.38 C 454.17 201.08 448.71 201.18 443.25 201.24 C 443.24 212.40 443.40 223.56 443.49 234.71 C 439.46 234.70 435.42 234.67 431.43 235.23 C 431.49 238.98 431.51 242.73 431.48 246.48 C 428.82 246.52 426.17 246.52 423.52 246.49 C 423.45 242.75 423.42 239.02 423.47 235.28 C 419.20 234.65 414.88 234.75 410.59 234.60 C 410.56 223.18 410.86 211.75 410.31 200.34 C 405.13 200.43 399.94 200.40 394.76 200.38 M 471.69 200.33 C 471.31 205.61 471.50 210.92 472.14 216.18 C 472.73 225.77 472.04 235.43 473.20 244.99 C 473.50 250.90 473.40 256.82 473.45 262.74 C 479.60 263.47 485.81 263.11 492.00 263.18 C 507.86 263.13 523.72 263.29 539.57 263.10 C 539.86 257.53 539.38 251.96 538.13 246.53 C 522.10 246.56 506.07 246.50 490.05 246.56 C 489.83 244.19 489.75 241.80 489.78 239.42 C 497.69 239.50 505.61 239.49 513.52 239.44 C 513.69 234.06 513.51 228.68 513.25 223.31 C 505.01 223.09 496.71 223.84 488.51 222.85 C 488.51 220.69 488.48 218.54 488.44 216.39 C 504.15 216.22 519.86 216.41 535.57 216.30 C 535.67 210.98 535.33 205.65 534.55 200.39 C 513.59 200.36 492.64 200.48 471.69 200.33 Z"/>
</g>
<g id="#b01f24ff">
<path fill="#b01f24" opacity="1.00" d=" M 238.37 283.01 C 294.91 283.34 351.46 282.97 408.00 283.10 C 459.70 283.15 511.39 282.98 563.09 283.18 C 550.79 293.55 537.99 303.33 525.58 313.57 C 524.02 314.92 522.22 316.21 520.04 315.94 C 440.66 315.99 361.29 315.94 281.92 315.97 C 278.60 316.47 276.42 313.66 274.00 311.95 C 262.26 302.13 250.00 292.95 238.37 283.01 Z"/>
</g>
</svg>